# xmcd
#
# Track frame offsets:
#	150
#	14887
#	26175
#	38880
#	53570
#	63547
#	74472
#	84510
#	97672
#	113602
#
# Disc length: 1660 seconds
#
# Revision: 0
# Processed by: cddbd v1.5.1PL2 Copyright (c) Steve Scherf et al.
# Submitted via: dBpowerAMP V4.0
#
DISCID=80067a0a
DTITLE=Freddy Fender - Christmas Time In The Valley
DYEAR=1998
DGENRE=Country/Christma
TTITLE0=Please Come Home For Christmas
TTITLE1=Petty Paper
TTITLE2=Love Gets Better At Christmas
TTITLE3=If Christmas Comes To Your House (Spanish And English)
TTITLE4=Blue Christmas
TTITLE5=Christmas Time In The Valley
TTITLE6=Santa! Don't Pass Me By
TTITLE7=Natividad (The Infant Song)
TTITLE8=When They Ring Those Christmas Bells
TTITLE9=I'll Be On The Chimney
EXTD=
EXTT0=
EXTT1=
EXTT2=
EXTT3=
EXTT4=
EXTT5=
EXTT6=
EXTT7=
EXTT8=
EXTT9=
PLAYORDER=
